<?xml version="1.0" encoding="UTF-8"?><svg xmlns="http://www.w3.org/2000/svg" viewBox="0 0 142.46 216.82"><defs><style>.cls-1{fill:#ffa480;}.cls-2{isolation:isolate;}.cls-3{fill:#8046bd;}.cls-4{fill:#2c6fa3;}.cls-5{fill:#ed3453;}.cls-6{opacity:.5;}.cls-6,.cls-7{fill:#451d6e;}.cls-6,.cls-8,.cls-9,.cls-10{mix-blend-mode:multiply;}.cls-8{fill:#22557d;}.cls-8,.cls-9,.cls-10{opacity:.3;}.cls-9{fill:#bd795f;}.cls-11{fill:#fbb03b;}.cls-10{fill:#82192f;}</style></defs><g class="cls-2"><g id="Layer_2"><g id="Layer_2-2"><g><g><path class="cls-7" d="M71.16,216.82c-.7,0-1.27-.57-1.27-1.27v-49.83c0-.7,.57-1.27,1.27-1.27s1.27,.57,1.27,1.27v49.83c0,.7-.57,1.27-1.27,1.27Z"/><g><path class="cls-5" d="M1.27,174.05l6.49-49.83L1.27,174.05Z"/><path class="cls-7" d="M1.27,175.32c-.05,0-.11,0-.17-.01-.69-.09-1.18-.73-1.09-1.42l6.49-49.83c.09-.69,.72-1.19,1.42-1.09,.69,.09,1.18,.73,1.09,1.42l-6.49,49.83c-.08,.64-.63,1.1-1.25,1.1Z"/></g><g><path class="cls-5" d="M141.19,174.05l-6.49-49.83,6.49,49.83Z"/><path class="cls-7" d="M141.19,175.32c-.63,0-1.17-.47-1.25-1.1l-6.49-49.83c-.09-.69,.4-1.33,1.09-1.42,.69-.09,1.33,.4,1.42,1.09l6.49,49.83c.09,.69-.4,1.33-1.09,1.42-.06,0-.11,.01-.17,.01Z"/></g><rect class="cls-3" x="69.89" y="87.94" width="2.53" height="25.68"/><rect class="cls-7" x="46.82" y="90.64" width="1.9" height="6.39" transform="translate(-34.09 27.61) rotate(-24.05)"/><rect class="cls-7" x="44.57" y="158.54" width="6.39" height="1.9" transform="translate(-117.35 138.11) rotate(-65.95)"/><rect class="cls-7" x="14.58" y="109.78" width="1.9" height="6.72" transform="translate(-87.65 64.19) rotate(-56.8)"/><rect class="cls-7" x="12.17" y="139.58" width="6.72" height="1.9" transform="translate(-74.42 31.45) rotate(-33.2)"/><rect class="cls-7" x="91.09" y="92.89" width="6.39" height="1.9" transform="translate(-29.83 141.69) rotate(-65.95)"/><rect class="cls-7" x="93.33" y="156.3" width="1.9" height="6.39" transform="translate(-56.81 52.26) rotate(-24.04)"/><rect class="cls-7" x="123.17" y="112.19" width="6.72" height="1.9" transform="translate(-41.3 87.77) rotate(-33.21)"/><rect class="cls-7" x="125.58" y="137.17" width="1.9" height="6.72" transform="translate(-60.34 169.47) rotate(-56.8)"/><g><path class="cls-7" d="M71.16,167.31c-16.75,0-32.61-3.83-44.64-10.77-13.21-7.63-20.48-18.17-20.48-29.7s7.27-22.08,20.48-29.7c12.03-6.95,27.89-10.77,44.64-10.77s32.61,3.83,44.64,10.77c13.21,7.63,20.48,18.17,20.48,29.7s-7.27,22.08-20.48,29.7c-12.03,6.95-27.89,10.77-44.64,10.77Zm0-77.78c-16.21,0-31.5,3.68-43.06,10.35-12.19,7.04-18.9,16.61-18.9,26.96s6.71,19.92,18.9,26.96c11.56,6.67,26.85,10.35,43.06,10.35s31.5-3.68,43.06-10.35c12.19-7.04,18.9-16.61,18.9-26.96s-6.71-19.92-18.9-26.96c-11.56-6.67-26.85-10.35-43.06-10.35Z"/><g><ellipse class="cls-3" cx="71.16" cy="126.83" rx="56.57" ry="32.66"/><path class="cls-7" d="M71.16,160.42c-14.66,0-29.32-3.22-40.48-9.66-10.99-6.35-17.04-14.84-17.04-23.92,0-9.08,6.05-17.57,17.04-23.92,22.32-12.89,58.64-12.89,80.95,0,10.99,6.35,17.04,14.84,17.04,23.92s-6.05,17.57-17.04,23.92c-11.16,6.44-25.82,9.66-40.48,9.66Zm0-65.29c-14.32,0-28.63,3.15-39.53,9.44-10.38,5.99-16.09,13.9-16.09,22.27,0,8.37,5.72,16.28,16.09,22.27,21.8,12.58,57.26,12.58,79.05,0,10.38-5.99,16.09-13.9,16.09-22.27s-5.72-16.28-16.09-22.27c-10.9-6.29-25.21-9.44-39.53-9.44Z"/></g><ellipse class="cls-7" cx="71.16" cy="125.24" rx="40" ry="23.1"/></g></g><ellipse class="cls-6" cx="51.47" cy="140.53" rx="18.62" ry="10.75"/><ellipse class="cls-6" cx="94.18" cy="111.65" rx="13.85" ry="7.99"/><g><path class="cls-1" d="M103.3,9.47s-.7,6.57-1.38,10.66c0,.05-.01,.09-.02,.14-.21,1.25-.42,2.25-.6,2.73-.78,2.07-1.3,2.22-2.55,3.22-1.64,1.3-7.84,5.66-7.84,5.66l-.78-.69-3.11-2.74,1.55-2.28,7.65-4.68s.67-.52,.93-1.77c.26-1.26,3.36-10.83,3.36-10.83l2.77,.59Z"/><path class="cls-9" d="M101.91,20.27c-.21,1.25-.42,2.25-.6,2.73-.78,2.07-1.3,2.22-2.55,3.22-1.64,1.3-7.84,5.66-7.84,5.66l-.78-.69-.5-1.89s11.27-3.13,12.26-9.03Z"/><path class="cls-1" d="M107.1,82.98l-1.97-.55s-2.27-1.58-3.02,1.03c0,0-.28,1.44,.61,2.66,.89,1.22,.86,4.24,.86,4.24,0,0-.42,4.35,1.39,5.19s2.86-2.3,2.86-2.3c0,0,.31-2.14,0-3.36-.31-1.22-.2-2.83-.2-2.83l.59-3.91-1.11-.17Z"/><path class="cls-1" d="M81.7,87.05c-.11,.06-1.91,1.14-1.91,1.14,0,0-.92-.78-1-.8-.08-.03-2.11-1.11-2.44,1.39-.1,.77,.04,1.65,.28,2.38,.33,1.05,.11,2.66,.03,3.36-.08,.69-.5,3.72,2.08,4.69,2.58,.97,2.66-1.55,2.66-1.55,0,0-.08-3.41,.11-3.88s1.39-2.41,1.39-2.41l-1.19-4.3Z"/><path class="cls-5" d="M113.73,78.42c-1.83,1.83-6.23,8.83-6.23,8.83-2.66,.39-2.36-4.83-2.36-4.83,0,0,.04-.37,.12-.92,.02-.15,.04-.31,.06-.47,.04-.26,.08-.54,.12-.83,.16-1.1,.34-2.27,.5-2.88,.55-2.18,1.45-3.16,1.45-3.16-2.77-2.99-8.12-10.32-8.12-10.32,0,0-.78,12.92-1.55,16.75-.78,3.82-4.11,4.49-4.11,4.49-8.21,3.16-11.21,7.26-11.21,7.26-3.44,1.55-2.6-4.15-2.6-4.15,0,0,.77-1.46,1.85-3.13,.87-1.36,1.95-2.84,2.98-3.8,1.59-1.46,5.65-2.11,5.65-2.11-.55-1.27-2.22-13.75-2.22-13.75-2.6-4.88-1.31-9.81-1.31-9.81l.24-1.52,.68-4.21h16.01c3.81,3.76,9.95,17.15,10.95,20.42,1,3.27,.94,6.32-.89,8.15Z"/><path d="M69.24,18.29s-3.62,.68-4.36,5.45c-.5,3.23-.29,4.6,.64,6.49,.92,1.89,1.11,4.79,1.11,4.79l.44-1.76,.96,4.6,.26-1.98s1.18,3.96,1.18,3.85,.89-1.31,.89-1.31c0,0,.81,1.54,.81,1.31s2.03-2.72,2.03-2.72l3.62,.81s.04-4.66,.96-5.77c.92-1.11-.86-11.24-.86-11.24-.53-2.01-4.97-5.51-7.7-2.53Z"/><path class="cls-1" d="M77.68,35.31s-.38-.47-.85-1.34c-1.24-2.32-3.82-2.1-3.82-2.1-4.92-.11-5.86-1.89-6.71-5.66-.49-2.18,1.14-4.86,2.77-6.17,1.85-1.48,4.96-1.74,8.69,1.44,1.54,1.31,2.2,2.54,2.44,3.52,.35,1.4-.15,2.32-.15,2.32l1.59,1.28,2.22,1.79c3.3,3.62,0,4.81-6.18,4.93Z"/><path d="M70.39,18.97s2.38,1.42,1.25,5.74c-1.14,4.33,1.88,7.99,1.97,8.01,1.43,.39-3.22,1.11-3.22,1.11l-4.18-4.6-.75-5.49,2.47-3.63,2.79-1.3-.33,.17Z"/><path class="cls-3" d="M103.67,49.85s-5.5,4.97-11.73,5.98c-1.71,.28-3.48,.25-5.2-.26,0,0-.05-5.4-3.58-8.65-2.99-2.76-7.61-4.44-10.29-7.62-.47-.56-.88-1.17-1.22-1.83,0,0,1.03-2.01,4.14-3.34,.69-.3,1.03-.17,1.03-.17,0,0,3.34,.16,5.88-1.57,.7-.47,.51-1.98-.06-2.99,.44-.34,3.97-2.51,5.93-3.24,0,0,1.04,4.12,2.07,4.56,.83,.36,2.59,.49,3.47,1.97,.21,.35,.37,.78,.46,1.31,.44,2.74-.06,3.35,.91,4.38,.38,.41,1.43,1.69,2.69,3.33,1.95,2.53,4.33,5.85,5.49,8.14Z"/><path class="cls-1" d="M63.09,37.08c-.19-.17-1.5-1.77-1.5-1.77-.66-.71-1.9-1.51-2.83-1.78-.78-.22-3.08-2.38-3.08-2.38-.74-.48-1.4-.07-.86,.58,0,0,1.77,1.91,1.77,2.11s-.17,.58-.61,.5-2.72-1.28-2.72-1.28c-.58-.29-1.01,.06-.55,.5,0,0,1.61,1.42,1.94,1.75,.33,.33,1.53,1.05,1.91,1.19,.39,.14,1.64,.39,2.14,.58,.5,.19,1.92,.08,1.92,.08l2.07,.89,.39-.97Z"/><path class="cls-1" d="M100.4,11.01c-.03-.09,.14-1.5,.14-1.5,0,0,.14-.58-.01-.79-.15-.2-1.16-1.97-1.22-2.47-.06-.5-.69-2.22-.98-2.63-.3-.41,.03-.78,.03-.78,0,0,.33-.32,.78,.22,.45,.55,.6,1.18,.6,1.18,0,0,.8,1.38,1.39,.62,.59-.76,.62-1.07,.62-1.07,0,0,.16-.6,.2-1.28,.05-.8-.03-1.71-.07-1.85-.01-.76,.61-.9,.75-.24l.38,2.05-.1,1.52,.47-1.14,.34-1.96c.13-.6,.73-.46,.74,.24l-.12,2.08-.45,1.67,.64-1.05,.47-1.46c.16-.42,.69-.25,.63,.33l-.48,1.82c.29-.27,.57,.1,.44,.52l-.26,1.28s-.72,1.41-.75,1.45-.82,1.54-1.24,1.87l-.52,.82-2.42,.56Z"/><path class="cls-6" d="M91.94,55.84c-1.71,.28-3.48,.25-5.2-.26,0,0-.05-5.4-3.58-8.65-2.99-2.76-7.61-4.44-10.29-7.62l3.95-1.48s3.77,3.92,7.84,2.74c0,0,1.85-.3,2.36-2.74,0,0-.04,3.28-.96,4.96-1.35,2.45,.96,5.69,.96,5.69l4.91,7.36Z"/><path class="cls-6" d="M98.18,41.71c-.36-.4-3.3-3.64-4.5-4.08-1.23-.46-2.73-1.98-2.82-2.07,3.59,1.48,3.97-.68,3.27-2.87,.21,.35,.37,.78,.46,1.31,.44,2.74-.06,3.35,.91,4.38,.38,.41,1.43,1.69,2.69,3.33Z"/><path class="cls-1" d="M76.69,41.27s-6.3,2.77-8.96,2.03c-.57-.16-1.22-.53-1.9-1.02-2.46-1.78-5.2-5.12-5.2-5.12l.96-1.85s5.84,2.67,6.58,3.55l3.78-1.85c1.78-.95,3.74-.16,4.73,1.08,.81,.99,1,2.27,0,3.18Z"/><path class="cls-10" d="M90.99,65.9c.59,2.72,.96,15.36,.96,15.36,0,0-6.75-.34-10.31,3.8,.87-1.36,1.95-2.84,2.98-3.8,1.59-1.46,5.65-2.11,5.65-2.11-.55-1.27-2.22-13.75-2.22-13.75-2.6-4.88-1.31-9.81-1.31-9.81l.24-1.52,4.96,1.77s-2.23,4.29-.96,10.06Z"/><path class="cls-10" d="M105.25,81.5c.02-.14,.04-.3,.06-.47,0,.23-.03,.37-.06,.47Z"/><path class="cls-10" d="M109.51,73.99s-3.37,3.18-4.08,6.17c.15-1.06,.33-2.23,.49-2.84,.55-2.18,1.45-3.16,1.45-3.16-2.77-2.99-8.12-10.32-8.12-10.32,0,0,3.16-2.05,2.81-6.93,0,0,5.78,15.42,7.45,17.08Z"/><path class="cls-9" d="M81.63,28.59c-2.48,2.85-7.34,.64-7.34,.64,4.38,.7,6.02-2.55,5.9-4.24,.35,1.4-.15,2.32-.15,2.32l1.59,1.28Z"/><path class="cls-9" d="M76.69,41.27s-6.3,2.77-8.96,2.03c-.57-.16-1.22-.53-1.9-1.02,7.27,1.5,10.24-3.03,10.86-4.19,.81,.99,1,2.27,0,3.18Z"/></g><g><path class="cls-11" d="M46.03,71.93l-1.31-.87s-.66-1.86-2.05-2.82-3-2.89-1.12-3.92c1.88-1.03,3.47-1.97,3.72-2.35,.25-.38,1.73-1.12,2.42-1.37s1.82-.72,1.41,.56c-.4,1.28-.9,.87-1.32,1.91-.43,1.03-.83,2.58-.76,3.06,.07,.48,1.32,2.79,1.32,2.79,0,0-.65,2.69-.72,2.69s-1.59,.34-1.59,.34Z"/><path class="cls-1" d="M59.28,104.05l2.21-.3s2.33-2.93,.36-6.52c-1.97-3.59-5.05-7.14-5.11-7.5-.06-.36-3.62-.48-3.62-.48l6.16,14.79Z"/><path class="cls-5" d="M34.08,90.96l12.82,21.52s8.7,.39,14.59-8.73c.34-5.13-9.74-14.87-12.43-20.86,0,0-3.68,7.08-14.97,8.07Z"/><path class="cls-10" d="M57.31,98.85c1.41,1.16,2.73,2.36,4.06,3.54-1.15-5.35-9.84-14-12.31-19.5,0,0-3.68,7.08-14.97,8.07l12.33,20.69c2.15-3,.78-7.64,1.93-11.37,1.08-2.87,6.1-3.95,8.97-1.43Z"/><path d="M55.28,114.33s-.77,2.02-.49,4.62c.18,1.61,2,3.27,2.27,5.25l.51-.81s.03,2.5,1.37,4.45c0,0,.57-.93,.96-1.55,0,0,1,2.27,.87,2.72,0,0,1.65-1.45,1.83-2.14,0,0,.09,.14,.15,.95,0,0,1.83-1.52,1.86-2.24l.41,1.49s5.1-3.77,4.6-9.06c-.5-5.29-12.26-6.46-14.33-3.68Z"/><path class="cls-1" d="M69.61,117.75c.03,2.35-3.48,6.3-7.11,6.19-3.63-.11-5.99-4.21-6.21-4.91-.23-.7-.54-3.52-.54-3.52-.49-2.22-3.48-4.33-3.48-4.33-3.27-3.41,4.3-8.34,6.03-5.05,.37,.71,1.12,1.26,1.12,1.26,1.1-1.03,2.35-.51,2.35-.51,3.01,1.7,4.37,3.91,5.47,5.04,.82,.84,2.33,3.47,2.35,5.83Z"/><path d="M55.63,115.07s.63,1.89,1.25,2.16c.92,.39,1.61,.36,2.33,1.19,.56,.64,.87,1.67,2.09,2.04,1.34,.42,7.68-.44,8-4.67,0,0,1.04,1.46,.27,4.02-.76,2.56-6.02,5.28-6.02,5.28l-6.04-2.18s-1.82-3.89-1.88-4.03c-.06-.15,0-3.8,0-3.8Z"/><path class="cls-1" d="M56.92,115.99c-.51-.67-1.35-.76-1.52,.27-.24,1.43,.27,2.75,.74,3.14,.66,.56,1.39,.06,1.38-.69-.01-.94,0-1.94-.6-2.72Z"/><path class="cls-4" d="M60.83,88.23c-.69,2.04-1.82,3.87-8.25,2.6l-9.36-7.4-1.31-2.89-1.74-3.83s.49-.09,1.28-.12c1.59-.06,4.38,.1,6.88,1.61-.05-.13-1.31-3.16-2.47-5.33-.41-.77-.81-1.43-1.14-1.81,0,0,1.31-3.05,3.62-2.15,0,0,4.78,6.04,4.78,6.13s6.01,8.31,6.34,8.76c.24,.33,1.23,1.45,1.48,2.83,.09,.51,.08,1.06-.1,1.61Z"/><path class="cls-8" d="M60.83,88.23c-.69,2.04-1.82,3.87-8.25,2.6l-9.36-7.4-1.31-2.89-.46-3.95c1.59-.06,4.38,.09,6.88,1.61-.05-.13-1.31-3.16-2.47-5.33l4.72,6.46c5.2,8.8,8.01,8.93,10.35,7.3,.09,.51,.08,1.06-.1,1.61Z"/><path class="cls-1" d="M57.56,82.89c-.37,.11-.35,.59,.32,.52h1.3l.17,.23-1.77,.54c-.64,.22-.35,.86,.3,.75l2.12-.43,.13,.19-2,1.35c-.47,.33-.22,1.01,.37,.76l2.21-.97,.2,.7-1.39,1.47c-.44,.5-.05,1.11,.48,.73l.88-.71s-.31,1.03-.62,1.47c0,0-.17,.95,.28,.84,.45-.1,.6-.61,.64-.93,.04-.31,1.03-2.26,1.03-2.26,0,0,.64-1.75,0-2.96-.64-1.21-1.91-2.01-3.61-1.57-.5,.13-1.05,.26-1.05,.26Z"/><path class="cls-11" d="M37.06,76.25c-.07-.04-1.7-1.37-1.7-1.37,0,0-.99-2.14-1.49-2.66-.49-.52-2.02-2.2-.22-3.16s1.91-1.41,1.91-1.41c0,0,1.12-1.03,2.24-1.23,1.12-.2,2.71-1.1,2.71-1.17s2.02-.85,1.57,.76-2.29,3.41-2.29,3.47-1.48,1.61-.78,3.9c.69,2.29-1.95,2.87-1.95,2.87Z"/><path class="cls-4" d="M53.37,92.37c-.45,2.5-3.54,3.73-3.54,3.73,0,0-1.13,0-2.82-.28-2.24-.38-5.46-1.27-8.31-3.38-.71-.53-1.41-1.14-2.05-1.83-.73,.14-1.54,.38-2.49,.48,0,0-5.48-7.74,2.59-13.14l-1.38-3.07s1.5-1.97,3.65-1.5c0,0,8.29,10.87,9.98,13.09,1.69,2.22,4.83,3.39,4.38,5.89Z"/><path class="cls-8" d="M49.89,95.04l-2.88,.78c-2.24-.38-5.46-1.27-8.31-3.38l2.94-.47c-4.36-3.41-4.9-14.03-4.9-14.03,3.05,10.72,7.71,13.91,7.71,13.91l5.44,3.18Z"/><path class="cls-1" d="M53.33,92.17l-3.38,.55-.04-.19,3.15-2c.58-.37,.18-.94-.37-.73l-3.38,1.75-.16-.21,2.6-2.45c.34-.42-.12-.88-.61-.52l-2.76,2.23-.24-.15,1.27-1.73c.31-.54-.22-.55-.45-.34l-2.05,2c-2,.76-3.59,2.69-3.59,2.69,0,0-4.12,1.02-5.62,1.43-1.49,.42-3.17,1.2-3.62,2.33-.45,1.14,2.72,6.16,5.65,11.3s7.17,4.36,7.17,4.36c1.26-1.37-.12-5.24-1.88-7.68l-5.62-6.31c1.2-1.2,5.53-3.05,5.53-3.05l2.24,.54,2.66,.12,.99-.19h.72c.61,.04,.5-.39,.07-.69-.37-.25-1.3-.18-1.3-.18h-.88s-.49-.25-.43-.33c.06-.07,1.08-.69,1.08-.69l3.45-.97c.54-.19,.46-.89-.19-.88Z"/><path class="cls-9" d="M57.51,111.65s-1.28-2.85,.8-5.52c.37,.71,1.12,1.26,1.12,1.26,0,0-2.34,.97-1.92,4.26Z"/></g></g></g></g></g></svg>